# xmcd CD database file
#
# Track frame offsets:
#	150
#	26594
#	51902
#	82146
#	120236
#	149067
#	173322
#	201624
#
# Disc length: 3052 seconds
#
# Revision: 0
# Processed by: cddbd v1.5.2PL0 Copyright (c) Steve Scherf et al.
# Submitted via: CDex 1.98
#
DISCID=6f0bea08
DTITLE=Per MATHISEN, Utsi ZIMRING w. David KIKOSKI - New York City Magic
DYEAR=2016
DGENRE=Jazz
TTITLE0=95 over B
TTITLE1=final destination
TTITLE2=block C 
TTITLE3=dizengoff
TTITLE4=metrics
TTITLE5=the jerk
TTITLE6=nyc nights
TTITLE7=funky junky
EXTD=YEAR: 2016
EXTT0=
EXTT1=
EXTT2=
EXTT3=
EXTT4=
EXTT5=
EXTT6=
EXTT7=
PLAYORDER=
